<?xml version="1.0" encoding="UTF-8" standalone="no"?>
<svg xmlns:svg="http://www.w3.org/2000/svg" xmlns="http://www.w3.org/2000/svg" version="1.0" width="343" height="126">
	<!-- lines -->
	<path d="M 15,100 C 15,100 70,17 163,64 C 257,110 300,90 330,80" style="fill:none;stroke:blue"/>
	<path d="M 15,100 C 72,32 72,32 72,32 L 147.49,15 L 175,105 L 258,110 L 329,79" style="fill:none;stroke:black"/>
	<!-- dots -->
	<path d="M 80,30 A 6,6.8600001 0 1 1 80,28" transform="matrix(0.7790291,0,0,0.7790291,118.98733,80.292399)" style="fill:#00ff00"/>
	<path d="M 80,30 A 6,6.8600001 0 1 1 80,28" transform="matrix(0.7790291,0,0,0.7790291,201.61024,85.485396)" style="fill:#00ff00"/>
	<path d="M 80,30 A 6,6.8600001 0 1 1 80,28" transform="matrix(0.7790291,0,0,0.7790291,271.71086,55.044146)" style="fill:#00ff00"/>
	<path d="M 80,30 A 6,6.8600001 0 1 1 80,28" transform="matrix(0.7790291,0,0,0.7790291,89.27774,-9.4827286)" style="fill:#00ff00"/>
	<path d="M 80,30 A 6,6.8600001 0 1 1 80,28" transform="matrix(0.7790291,0,0,0.7790291,14.675239,8.953521)" style="fill:#00ff00"/>
	<path d="M 80,30 A 6,6.8600001 0 1 1 80,28" transform="matrix(0.7790291,0,0,0.7790291,-42.348511,76.696021)" style="fill:#00ff00"/>
</svg>
